<?xml version="1.0" encoding="UTF-8" standalone="no"?>
<!DOCTYPE svg PUBLIC "-//W3C//DTD SVG 1.1//EN" "http://www.w3.org/Graphics/SVG/1.1/DTD/svg11.dtd">
<svg width="100%" height="100%" viewBox="0 0 320 191" version="1.1" xmlns="http://www.w3.org/2000/svg" xmlns:xlink="http://www.w3.org/1999/xlink" xml:space="preserve" xmlns:serif="http://www.serif.com/" style="fill-rule:evenodd;clip-rule:evenodd;stroke-linejoin:round;stroke-miterlimit:2;">
    <g transform="matrix(1,0,0,1,-196.805,-117.379)">
        <g transform="matrix(0.437361,0,0,0.437361,196.805,117.379)">
            <g transform="matrix(1,0,0,1,-234.169,-231.81)">
                <path d="M277.281,566.582C255.745,558.748 237.051,540.008 234.68,517.215C255.581,530.775 280.622,536.509 305.341,533.395C314.872,532.159 325.344,529.792 333.5,534.876C338.575,538.04 341.726,543.656 343.171,549.459C344.617,555.262 344.551,561.32 344.478,567.299L345.148,568.633C322.652,573 298.816,574.416 277.281,566.582Z" style="fill:rgb(240,240,240);fill-rule:nonzero;"/>
            </g>
            <g transform="matrix(1,0,0,1,-234.169,-231.81)">
                <path d="M235.147,517.101C246.12,532.57 261.694,544.193 279.646,550.31C283.488,551.695 287.524,552.467 291.606,552.596C295.586,552.593 299.494,551.524 302.921,549.5C306.155,547.677 309.252,545.439 312.872,544.434C316.634,543.45 320.643,544.119 323.881,546.271C327.942,548.821 330.844,552.677 333.552,556.547C336.557,560.844 339.611,565.354 344.304,567.963C344.872,568.279 344.348,569.143 343.781,568.827C335.617,564.289 332.594,554.663 325.646,548.81C322.403,546.08 318.318,544.31 314.033,545.192C310.286,545.963 307.091,548.269 303.832,550.143C300.518,552.166 296.758,553.347 292.882,553.582C288.806,553.662 284.747,553.047 280.878,551.764C272.121,549.016 263.851,544.908 256.37,539.591C247.799,533.57 240.321,526.127 234.26,517.584C233.885,517.055 234.775,516.576 235.147,517.101L235.147,517.101Z" style="fill:white;fill-rule:nonzero;"/>
            </g>
            <g transform="matrix(1,0,0,1,-234.169,-231.81)">
                <path d="M273.749,548.68C270.797,554.589 263.931,557.518 257.622,555.56C257.002,555.365 257.276,554.392 257.897,554.587C263.769,556.422 270.168,553.677 272.885,548.157C273.172,547.575 274.035,548.101 273.749,548.68L273.749,548.68Z" style="fill:white;fill-rule:nonzero;"/>
            </g>
            <g transform="matrix(1,0,0,1,-234.169,-231.81)">
                <path d="M301.403,550.64C299.381,544.396 295.077,539.139 289.355,535.925C288.787,535.607 289.311,534.743 289.877,535.061C295.826,538.417 300.294,543.897 302.384,550.399C302.582,551.019 301.601,551.257 301.403,550.64Z" style="fill:white;fill-rule:nonzero;"/>
            </g>
            <g transform="matrix(1,0,0,1,-234.169,-231.81)">
                <path d="M248.941,532.87C250.538,530.849 251.013,528.153 250.203,525.708C249.997,525.091 250.979,524.853 251.184,525.467C252.066,528.171 251.549,531.145 249.805,533.393C249.656,533.622 249.35,533.698 249.112,533.563C248.876,533.419 248.799,533.107 248.941,532.87L248.941,532.87Z" style="fill:white;fill-rule:nonzero;"/>
            </g>
            <g transform="matrix(1,0,0,1,-234.169,-231.81)">
                <path d="M289.032,461.845C289.172,462.227 289.312,462.608 289.46,462.993C291.368,468.115 293.689,473.075 296.4,477.822C296.604,478.192 296.816,478.564 297.03,478.928C303.683,490.294 312.39,500.328 322.705,508.516C326.813,511.771 331.163,514.708 335.716,517.303C342.005,520.886 349.109,524.271 353.712,529.566C354.198,530.114 354.65,530.69 355.065,531.293L346.723,567.712C346.663,567.785 346.611,567.86 346.55,567.934L346.283,569.403C346.039,569.286 345.788,569.159 345.544,569.041C345.402,568.974 345.262,568.898 345.12,568.831C345.026,568.783 344.932,568.735 344.845,568.698C344.813,568.682 344.782,568.666 344.759,568.652C344.671,568.614 344.594,568.57 344.515,568.535C343.111,567.828 341.71,567.111 340.312,566.383C340.303,566.381 340.303,566.381 340.297,566.371C329.587,560.922 319.562,554.223 310.431,546.412C310.162,546.176 309.884,545.937 309.618,545.684C305.602,542.116 301.884,538.225 298.501,534.051C296.656,531.76 294.928,529.377 293.324,526.911C289.192,520.53 286.089,513.54 284.13,506.195C280.225,491.554 281.046,475.827 288.456,462.832C288.646,462.5 288.834,462.175 289.032,461.845Z" style="fill:rgb(240,240,240);fill-rule:nonzero;"/>
            </g>
            <g transform="matrix(1,0,0,1,-234.169,-231.81)">
                <path d="M289.476,462.033C288.924,480.99 294.362,499.647 305.012,515.339C307.245,518.758 310.003,521.804 313.185,524.365C316.365,526.759 320.128,528.258 324.083,528.706C327.763,529.197 331.583,529.274 335.079,530.652C338.675,532.131 341.473,535.079 342.763,538.747C344.47,543.228 344.466,548.054 344.297,552.774C344.11,558.015 343.833,563.455 346.009,568.363C346.273,568.957 345.335,569.332 345.071,568.738C341.286,560.199 344.668,550.693 342.643,541.837C341.698,537.704 339.502,533.832 335.55,531.956C332.093,530.316 328.154,530.234 324.424,529.768C320.559,529.388 316.846,528.066 313.61,525.921C310.308,523.53 307.437,520.596 305.12,517.242C299.783,509.776 295.653,501.516 292.881,492.767C289.663,482.799 288.173,472.354 288.477,461.883C288.496,461.235 289.495,461.389 289.476,462.033L289.476,462.033Z" style="fill:white;fill-rule:nonzero;"/>
            </g>
            <g transform="matrix(1,0,0,1,-234.169,-231.81)">
                <path d="M301.285,510.487C295.37,513.428 288.124,511.632 284.267,506.271C283.889,505.742 284.693,505.13 285.071,505.66C288.655,510.66 295.417,512.321 300.909,509.55C301.49,509.257 301.862,510.197 301.285,510.487Z" style="fill:white;fill-rule:nonzero;"/>
            </g>
            <g transform="matrix(1,0,0,1,-234.169,-231.81)">
                <path d="M322.185,528.702C324.33,522.499 324.058,515.71 321.424,509.699C321.163,509.103 322.101,508.729 322.362,509.324C325.091,515.584 325.36,522.65 323.113,529.1C322.899,529.715 321.971,529.314 322.185,528.702Z" style="fill:white;fill-rule:nonzero;"/>
            </g>
            <g transform="matrix(1,0,0,1,-234.169,-231.81)">
                <path d="M290.996,482.928C293.488,482.276 295.49,480.409 296.315,477.969C296.522,477.352 297.449,477.754 297.244,478.367C296.32,481.058 294.116,483.12 291.371,483.865C291.114,483.959 290.824,483.835 290.714,483.584C290.613,483.327 290.739,483.032 290.996,482.928L290.996,482.928Z" style="fill:white;fill-rule:nonzero;"/>
            </g>
            <g transform="matrix(1,0,0,1,-234.169,-231.81)">
                <path d="M929.098,565.83C949.507,555.408 965.756,534.512 965.308,511.601C946.232,527.627 922.085,536.395 897.171,536.343C887.56,536.288 876.877,535.227 869.407,541.275C864.76,545.038 862.323,550.999 861.602,556.936C860.881,562.872 861.69,568.876 862.499,574.801L861.997,576.207C884.859,577.776 908.689,576.252 929.098,565.83Z" style="fill:rgb(240,240,240);fill-rule:nonzero;"/>
            </g>
            <g transform="matrix(1,0,0,1,-234.169,-231.81)">
                <path d="M964.83,511.545C955.842,528.245 941.814,541.694 924.75,549.972C921.108,551.819 917.197,553.081 913.162,553.71C909.212,554.196 905.203,553.616 901.552,552.029C898.119,550.618 894.771,548.776 891.054,548.224C887.199,547.71 883.303,548.867 880.354,551.401C876.638,554.43 874.231,558.614 872.02,562.788C869.565,567.421 867.089,572.273 862.753,575.439C862.228,575.822 862.853,576.615 863.378,576.232C870.922,570.724 872.738,560.8 878.915,554.138C881.797,551.029 885.634,548.77 889.995,549.119C893.808,549.424 897.263,551.32 900.727,552.779C904.265,554.379 908.142,555.089 912.017,554.846C916.072,554.424 920.025,553.315 923.707,551.567C932.059,547.763 939.762,542.669 946.532,536.473C954.298,529.444 960.805,521.138 965.77,511.915C966.077,511.344 965.135,510.978 964.83,511.545Z" style="fill:white;fill-rule:nonzero;"/>
            </g>
            <g transform="matrix(1,0,0,1,-234.169,-231.81)">
                <path d="M930.403,547.629C934.058,553.13 941.233,555.193 947.252,552.475C947.844,552.205 947.452,551.273 946.86,551.543C941.258,554.086 934.571,552.148 931.196,547.004C930.839,546.461 930.047,547.09 930.403,547.629Z" style="fill:white;fill-rule:nonzero;"/>
            </g>
            <g transform="matrix(1,0,0,1,-234.169,-231.81)">
                <path d="M903.199,552.974C904.438,546.529 908.063,540.782 913.347,536.889C913.871,536.504 913.246,535.711 912.722,536.096C907.231,540.157 903.47,546.145 902.196,552.855C902.075,553.495 903.079,553.61 903.199,552.974L903.199,552.974Z" style="fill:white;fill-rule:nonzero;"/>
            </g>
            <g transform="matrix(1,0,0,1,-234.169,-231.81)">
                <path d="M953.079,528.89C951.246,527.08 950.443,524.464 950.946,521.937C951.075,521.299 950.071,521.185 949.943,521.818C949.4,524.611 950.279,527.498 952.286,529.515C952.462,529.724 952.774,529.761 952.995,529.599C953.211,529.427 953.249,529.108 953.079,528.89L953.079,528.89Z" style="fill:white;fill-rule:nonzero;"/>
            </g>
            <g transform="matrix(1,0,0,1,-234.169,-231.81)">
                <path d="M904.561,463.331C904.469,463.727 904.377,464.123 904.278,464.523C903.014,469.841 901.32,475.048 899.213,480.092C899.056,480.485 898.892,480.881 898.724,481.268C893.518,493.366 886.111,504.393 876.88,513.788C873.204,517.523 869.248,520.972 865.048,524.107C859.247,528.436 852.613,532.668 848.697,538.49C848.281,539.092 847.904,539.72 847.566,540.37L860.321,575.486C860.39,575.552 860.451,575.62 860.52,575.686L860.965,577.111C861.193,576.965 861.426,576.808 861.654,576.661C861.787,576.577 861.917,576.485 862.049,576.4C862.137,576.341 862.224,576.282 862.306,576.234C862.335,576.215 862.364,576.195 862.386,576.178C862.468,576.13 862.539,576.077 862.614,576.032C863.92,575.158 865.222,574.274 866.52,573.379C866.528,573.377 866.528,573.377 866.534,573.366C876.492,566.642 885.618,558.761 893.72,549.888C893.958,549.62 894.204,549.349 894.437,549.065C897.984,545.03 901.196,540.712 904.04,536.154C905.589,533.653 907.011,531.076 908.3,528.431C911.616,521.591 913.836,514.272 914.878,506.743C916.954,491.732 914.205,476.225 905.254,464.24C905.025,463.934 904.798,463.635 904.561,463.331Z" style="fill:rgb(240,240,240);fill-rule:nonzero;"/>
            </g>
            <g transform="matrix(1,0,0,1,-234.169,-231.81)">
                <path d="M904.144,463.572C907.022,482.318 903.919,501.502 895.278,518.384C893.482,522.052 891.119,525.414 888.277,528.346C885.415,531.113 881.864,533.063 877.995,533.993C874.404,534.934 870.621,535.48 867.321,537.276C863.934,539.186 861.52,542.456 860.691,546.255C859.547,550.911 860.145,555.701 860.892,560.364C861.722,565.542 862.666,570.907 861.11,576.045C860.921,576.667 861.898,576.923 862.086,576.302C864.794,567.362 860.269,558.344 861.19,549.306C861.619,545.089 863.323,540.976 867.015,538.629C870.243,536.576 874.143,536.01 877.787,535.089C881.576,534.237 885.098,532.469 888.046,529.942C891.029,527.164 893.518,523.899 895.405,520.286C899.784,512.22 902.868,503.516 904.543,494.492C906.511,484.204 906.706,473.655 905.117,463.301C905.019,462.66 904.046,462.936 904.144,463.572L904.144,463.572Z" style="fill:white;fill-rule:nonzero;"/>
            </g>
            <g transform="matrix(1,0,0,1,-234.169,-231.81)">
                <path d="M898.381,513.111C904.612,515.302 911.582,512.63 914.752,506.835C915.061,506.264 914.188,505.755 913.878,506.327C910.936,511.73 904.43,514.209 898.638,512.134C898.026,511.916 897.772,512.894 898.381,513.111L898.381,513.111Z" style="fill:white;fill-rule:nonzero;"/>
            </g>
            <g transform="matrix(1,0,0,1,-234.169,-231.81)">
                <path d="M879.878,533.757C876.987,527.865 876.422,521.094 878.297,514.804C878.483,514.181 877.506,513.924 877.32,514.547C875.381,521.096 875.983,528.141 879.006,534.265C879.294,534.849 880.165,534.337 879.878,533.757Z" style="fill:white;fill-rule:nonzero;"/>
            </g>
            <g transform="matrix(1,0,0,1,-234.169,-231.81)">
                <path d="M905.204,484.496C902.651,484.155 900.434,482.549 899.315,480.229C899.034,479.641 898.164,480.154 898.443,480.737C899.691,483.294 902.131,485.07 904.947,485.472C905.214,485.533 905.486,485.375 905.564,485.112C905.633,484.845 905.471,484.567 905.204,484.496L905.204,484.496Z" style="fill:white;fill-rule:nonzero;"/>
            </g>
            <g transform="matrix(1,0,0,1,-234.169,-231.81)">
                <path d="M871.498,246.81L727.708,246.81L727.708,256.06C727.706,256.533 727.869,256.993 728.169,257.36C727.879,264.59 727.708,273.82 727.708,283.85L727.708,531.15C727.708,554.33 728.639,573.19 729.779,573.19L869.429,573.19C870.569,573.19 871.498,554.33 871.498,531.15L871.498,283.85C871.498,273.82 871.329,264.59 871.038,257.36C871.338,256.993 871.501,256.533 871.498,256.06L871.498,246.81Z" style="fill:white;fill-rule:nonzero;"/>
            </g>
            <g transform="matrix(1,0,0,1,-234.169,-231.81)">
                <path d="M869.429,574.19L729.779,574.19C728.69,574.19 727.971,574.19 727.317,560.912C726.925,552.943 726.708,542.374 726.708,531.15L726.708,283.85C726.708,274.156 726.872,264.734 727.17,257.32C727.356,252.868 727.569,249.302 727.803,246.72C728.262,241.664 728.699,240.81 729.779,240.81L869.429,240.81C870.508,240.81 870.945,241.664 871.404,246.72C871.639,249.312 871.852,252.878 872.037,257.318L872.038,257.32C872.335,264.727 872.498,274.148 872.498,283.85L872.498,531.15C872.498,542.374 872.282,552.944 871.89,560.912C871.236,574.19 870.517,574.19 869.429,574.19ZM730.347,572.19L868.86,572.19C869.584,569.457 870.498,554.62 870.498,531.15L870.498,283.85C870.498,274.175 870.335,264.782 870.039,257.402L870.039,257.402C869.855,252.994 869.644,249.46 869.413,246.9C869.323,245.525 869.136,244.158 868.851,242.81L730.356,242.81C730.072,244.158 729.884,245.525 729.795,246.9C729.563,249.451 729.353,252.984 729.168,257.402C728.872,264.789 728.708,274.182 728.708,283.85L728.708,531.15C728.708,554.619 729.623,569.457 730.347,572.19Z" style="fill:rgb(228,228,228);fill-rule:nonzero;"/>
            </g>
            <g transform="matrix(1,0,0,1,-234.169,-231.81)">
                <path d="M869.429,241.81L729.779,241.81C728.644,241.812 727.711,242.745 727.708,243.88L727.708,256.06C727.706,256.533 727.869,256.993 728.169,257.36C728.562,257.845 729.154,258.128 729.779,258.13L869.429,258.13C870.053,258.128 870.645,257.845 871.038,257.36C871.338,256.993 871.501,256.533 871.498,256.06L871.498,243.88C871.496,242.745 870.563,241.812 869.429,241.81Z" style="fill:rgb(202,202,202);fill-rule:nonzero;"/>
            </g>
            <circle id="b800b2fc-3bcc-4a40-9972-a80335d602c8" cx="505.559" cy="17.565" r="2.94" style="fill:white;"/>
            <circle id="fa63cc97-e384-451c-9b8c-3b6845b8b0f6" cx="516.717" cy="17.565" r="2.94" style="fill:white;"/>
            <circle id="beaeadfc-8efd-4e6c-adaf-945ac9d4d623" cx="527.875" cy="17.565" r="2.94" style="fill:white;"/>
            <g transform="matrix(1,0,0,1,-234.169,-231.81)">
                <path d="M858.498,245.45L845.648,245.45C845.129,245.453 844.702,245.88 844.699,246.4C844.695,246.543 844.729,246.685 844.799,246.81C844.954,247.138 845.285,247.349 845.648,247.35L858.498,247.35C858.865,247.352 859.201,247.141 859.359,246.81C859.42,246.682 859.451,246.542 859.449,246.4C859.449,246.4 859.449,246.4 859.449,246.4C859.449,245.879 859.02,245.45 858.499,245.45C858.499,245.45 858.499,245.45 858.498,245.45Z" style="fill:white;fill-rule:nonzero;"/>
            </g>
            <g transform="matrix(1,0,0,1,-234.169,-231.81)">
                <path d="M858.498,249.02L845.648,249.02C845.127,249.02 844.698,249.449 844.698,249.97C844.698,250.491 845.127,250.92 845.648,250.92L858.498,250.92C859.02,250.92 859.448,250.491 859.448,249.97C859.448,249.449 859.02,249.02 858.498,249.02Z" style="fill:white;fill-rule:nonzero;"/>
            </g>
            <g transform="matrix(1,0,0,1,-234.169,-231.81)">
                <path d="M858.498,252.59L845.648,252.59C845.127,252.59 844.698,253.019 844.698,253.54C844.698,254.061 845.127,254.49 845.648,254.49L858.498,254.49C859.02,254.49 859.448,254.061 859.448,253.54C859.448,253.019 859.02,252.59 858.498,252.59Z" style="fill:white;fill-rule:nonzero;"/>
            </g>
            <g transform="matrix(1,0,0,1,-234.169,-231.81)">
                <path d="M813.498,284.83L787.058,284.83C784.316,284.831 782.06,287.087 782.058,289.83L782.058,312.73C782.063,315.471 784.317,317.725 787.058,317.73L813.498,317.73C816.238,317.722 818.49,315.47 818.498,312.73L818.498,289.83C818.494,287.089 816.24,284.835 813.498,284.83Z" style="fill:rgb(227,255,99);fill-rule:nonzero;"/>
            </g>
            <g transform="matrix(1,0,0,1,-234.169,-231.81)">
                <path d="M846.349,332.69L754.199,332.69C752.953,332.69 751.929,333.715 751.929,334.96C751.929,336.205 752.953,337.23 754.199,337.23L846.349,337.23C847.594,337.23 848.619,336.205 848.619,334.96C848.619,333.715 847.594,332.69 846.349,332.69Z" style="fill:rgb(228,228,228);fill-rule:nonzero;"/>
            </g>
            <g transform="matrix(1,0,0,1,-234.169,-231.81)">
                <path d="M789.199,343.33L754.199,343.33C752.953,343.33 751.929,344.355 751.929,345.6C751.929,346.845 752.953,347.87 754.199,347.87L789.199,347.87C790.444,347.87 791.469,346.845 791.469,345.6C791.469,344.355 790.444,343.33 789.199,343.33Z" style="fill:rgb(228,228,228);fill-rule:nonzero;"/>
            </g>
            <g transform="matrix(1,0,0,1,-234.169,-231.81)">
                <path d="M813.498,383.83L787.058,383.83C784.316,383.831 782.06,386.087 782.058,388.83L782.058,411.73C782.063,414.471 784.317,416.725 787.058,416.73L813.498,416.73C816.238,416.722 818.49,414.47 818.498,411.73L818.498,388.83C818.494,386.089 816.24,383.835 813.498,383.83Z" style="fill:rgb(227,255,99);fill-rule:nonzero;"/>
            </g>
            <g transform="matrix(1,0,0,1,-234.169,-231.81)">
                <path d="M846.349,431.69L754.199,431.69C752.953,431.69 751.929,432.715 751.929,433.96C751.929,435.205 752.953,436.23 754.199,436.23L846.349,436.23C847.594,436.23 848.619,435.205 848.619,433.96C848.619,432.715 847.594,431.69 846.349,431.69Z" style="fill:rgb(228,228,228);fill-rule:nonzero;"/>
            </g>
            <g transform="matrix(1,0,0,1,-234.169,-231.81)">
                <path d="M789.199,442.33L754.199,442.33C752.953,442.33 751.929,443.355 751.929,444.6C751.929,445.845 752.953,446.87 754.199,446.87L789.199,446.87C790.444,446.87 791.469,445.845 791.469,444.6C791.469,443.355 790.444,442.33 789.199,442.33Z" style="fill:rgb(228,228,228);fill-rule:nonzero;"/>
            </g>
            <g transform="matrix(1,0,0,1,-234.169,-231.81)">
                <path d="M813.498,482.83L787.058,482.83C784.316,482.831 782.06,485.087 782.058,487.83L782.058,510.73C782.063,513.471 784.317,515.725 787.058,515.73L813.498,515.73C816.238,515.722 818.49,513.47 818.498,510.73L818.498,487.83C818.494,485.089 816.24,482.835 813.498,482.83Z" style="fill:rgb(227,255,99);fill-rule:nonzero;"/>
            </g>
            <g transform="matrix(1,0,0,1,-234.169,-231.81)">
                <path d="M846.349,530.69L754.199,530.69C752.953,530.69 751.929,531.715 751.929,532.96C751.929,534.205 752.953,535.23 754.199,535.23L846.349,535.23C847.594,535.23 848.619,534.205 848.619,532.96C848.619,531.715 847.594,530.69 846.349,530.69Z" style="fill:rgb(228,228,228);fill-rule:nonzero;"/>
            </g>
            <g transform="matrix(1,0,0,1,-234.169,-231.81)">
                <path d="M789.199,541.33L754.199,541.33C752.953,541.33 751.929,542.355 751.929,543.6C751.929,544.845 752.953,545.87 754.199,545.87L789.199,545.87C790.444,545.87 791.469,544.845 791.469,543.6C791.469,542.355 790.444,541.33 789.199,541.33Z" style="fill:rgb(228,228,228);fill-rule:nonzero;"/>
            </g>
            <g transform="matrix(1,0,0,1,-234.169,-231.81)">
                <path d="M688.498,234.88C688.496,233.745 687.563,232.812 686.429,232.81L316.779,232.81C315.644,232.812 314.711,233.745 314.708,234.88L314.708,247.06C314.707,247.567 314.896,248.056 315.239,248.43C314.909,256.7 314.708,267.6 314.708,279.54L314.708,554.45C314.708,580.23 315.639,601.19 316.779,601.19L686.429,601.19C687.569,601.19 688.498,580.23 688.498,554.45L688.498,279.54C688.498,267.6 688.299,256.7 687.969,248.43C688.311,248.056 688.5,247.567 688.498,247.06L688.498,234.88Z" style="fill:white;fill-rule:nonzero;"/>
            </g>
            <g transform="matrix(1,0,0,1,-234.169,-231.81)">
                <path d="M686.429,602.19L316.779,602.19C315.649,602.19 314.967,602.19 314.317,587.532C313.924,578.677 313.708,566.928 313.708,554.45L313.708,279.54C313.708,268.033 313.897,256.97 314.24,248.39C314.897,231.81 315.646,231.81 316.779,231.81L686.429,231.81C687.562,231.81 688.31,231.813 688.968,248.39C689.31,256.962 689.498,268.025 689.498,279.54L689.498,554.45C689.498,566.929 689.282,578.677 688.89,587.532C688.241,602.19 687.558,602.19 686.429,602.19ZM317.362,600.19L685.845,600.19C686.663,597.055 687.498,579.45 687.498,554.45L687.498,279.54C687.498,268.051 687.31,257.016 686.969,248.47L686.969,248.47C686.553,237.966 686.067,234.77 685.834,233.81L317.373,233.81C317.141,234.77 316.654,237.966 316.238,248.47C315.896,257.024 315.708,268.059 315.708,279.54L315.708,554.45C315.708,579.45 316.544,597.054 317.362,600.19Z" style="fill:rgb(228,228,228);fill-rule:nonzero;"/>
            </g>
            <g transform="matrix(1,0,0,1,-234.169,-231.81)">
                <path d="M686.429,232.81L316.779,232.81C315.644,232.812 314.711,233.745 314.708,234.88L314.708,247.06C314.707,247.567 314.896,248.056 315.239,248.43C315.627,248.874 316.189,249.129 316.779,249.13L686.429,249.13C687.018,249.129 687.58,248.874 687.969,248.43C688.311,248.056 688.5,247.567 688.498,247.06L688.498,234.88C688.496,233.745 687.563,232.812 686.429,232.81Z" style="fill:rgb(202,202,202);fill-rule:nonzero;"/>
            </g>
            <circle id="b7005a6f-2f7f-4001-b097-d8b6c117468f" cx="92.559" cy="8.565" r="2.94" style="fill:white;"/>
            <circle id="a0adf4f5-8105-4330-a35a-c3adb8f4e7bc" cx="103.717" cy="8.565" r="2.94" style="fill:white;"/>
            <circle id="a64b73a5-7207-44c1-bcaf-f99ab7b9c6dc" cx="114.875" cy="8.565" r="2.94" style="fill:white;"/>
            <g transform="matrix(1,0,0,1,-234.169,-231.81)">
                <path d="M675.498,236.45L662.648,236.45C662.127,236.45 661.698,236.879 661.698,237.4C661.698,237.921 662.127,238.35 662.648,238.35L675.498,238.35C676.02,238.35 676.448,237.921 676.448,237.4C676.448,236.879 676.02,236.45 675.498,236.45Z" style="fill:white;fill-rule:nonzero;"/>
            </g>
            <g transform="matrix(1,0,0,1,-234.169,-231.81)">
                <path d="M675.498,240.02L662.648,240.02C662.127,240.02 661.698,240.449 661.698,240.97C661.698,241.491 662.127,241.92 662.648,241.92L675.498,241.92C676.02,241.92 676.448,241.491 676.448,240.97C676.448,240.449 676.02,240.02 675.498,240.02Z" style="fill:white;fill-rule:nonzero;"/>
            </g>
            <g transform="matrix(1,0,0,1,-234.169,-231.81)">
                <path d="M675.498,243.59L662.648,243.59C662.127,243.59 661.698,244.019 661.698,244.54C661.698,245.061 662.127,245.49 662.648,245.49L675.498,245.49C676.02,245.49 676.448,245.061 676.448,244.54C676.448,244.019 676.02,243.59 675.498,243.59Z" style="fill:white;fill-rule:nonzero;"/>
            </g>
            <g transform="matrix(1,0,0,1,-234.169,-231.81)">
                <path d="M436.259,293.83L392.998,293.83C388.513,293.836 384.824,297.525 384.819,302.01L384.819,339.48C384.824,343.965 388.513,347.654 392.998,347.66L436.259,347.66C440.744,347.654 444.433,343.965 444.438,339.48L444.438,302.01C444.433,297.525 440.744,293.836 436.259,293.83Z" style="fill:rgb(227,255,99);fill-rule:nonzero;"/>
            </g>
            <g transform="matrix(1,0,0,1,-234.169,-231.81)">
                <path d="M614.688,308.32L463.909,308.32C461.871,308.32 460.194,309.997 460.194,312.035C460.194,314.073 461.871,315.75 463.909,315.75L614.688,315.75C616.726,315.75 618.403,314.073 618.403,312.035C618.403,309.997 616.726,308.32 614.688,308.32Z" style="fill:rgb(228,228,228);fill-rule:nonzero;"/>
            </g>
            <g transform="matrix(1,0,0,1,-234.169,-231.81)">
                <path d="M521.179,325.73L463.909,325.73C461.871,325.73 460.194,327.407 460.194,329.445C460.194,331.483 461.871,333.16 463.909,333.16L521.179,333.16C523.217,333.16 524.894,331.483 524.894,329.445C524.894,327.407 523.217,325.73 521.179,325.73Z" style="fill:rgb(228,228,228);fill-rule:nonzero;"/>
            </g>
            <g transform="matrix(1,0,0,1,-234.169,-231.81)">
                <path d="M436.259,393.83L392.998,393.83C388.513,393.836 384.824,397.525 384.819,402.01L384.819,439.48C384.824,443.965 388.513,447.654 392.998,447.66L436.259,447.66C440.744,447.654 444.433,443.965 444.438,439.48L444.438,402.01C444.433,397.525 440.744,393.836 436.259,393.83Z" style="fill:rgb(227,255,99);fill-rule:nonzero;"/>
            </g>
            <g transform="matrix(1,0,0,1,-234.169,-231.81)">
                <path d="M614.688,408.32L463.909,408.32C461.871,408.32 460.194,409.997 460.194,412.035C460.194,414.073 461.871,415.75 463.909,415.75L614.688,415.75C616.726,415.75 618.403,414.073 618.403,412.035C618.403,409.997 616.726,408.32 614.688,408.32Z" style="fill:rgb(228,228,228);fill-rule:nonzero;"/>
            </g>
            <g transform="matrix(1,0,0,1,-234.169,-231.81)">
                <path d="M521.179,425.73L463.909,425.73C461.871,425.73 460.194,427.407 460.194,429.445C460.194,431.483 461.871,433.16 463.909,433.16L521.179,433.16C523.217,433.16 524.894,431.483 524.894,429.445C524.894,427.407 523.217,425.73 521.179,425.73Z" style="fill:rgb(228,228,228);fill-rule:nonzero;"/>
            </g>
            <g transform="matrix(1,0,0,1,-234.169,-231.81)">
                <path d="M436.259,493.83L392.998,493.83C388.513,493.836 384.824,497.525 384.819,502.01L384.819,539.48C384.824,543.965 388.513,547.654 392.998,547.66L436.259,547.66C440.744,547.654 444.433,543.965 444.438,539.48L444.438,502.01C444.433,497.525 440.744,493.836 436.259,493.83Z" style="fill:rgb(227,255,99);fill-rule:nonzero;"/>
            </g>
            <g transform="matrix(1,0,0,1,-234.169,-231.81)">
                <path d="M614.688,508.32L463.909,508.32C461.871,508.32 460.194,509.997 460.194,512.035C460.194,514.073 461.871,515.75 463.909,515.75L614.688,515.75C616.726,515.75 618.403,514.073 618.403,512.035C618.403,509.997 616.726,508.32 614.688,508.32Z" style="fill:rgb(228,228,228);fill-rule:nonzero;"/>
            </g>
            <g transform="matrix(1,0,0,1,-234.169,-231.81)">
                <path d="M521.179,525.73L463.909,525.73C461.871,525.73 460.194,527.407 460.194,529.445C460.194,531.483 461.871,533.16 463.909,533.16L521.179,533.16C523.217,533.16 524.894,531.483 524.894,529.445C524.894,527.407 523.217,525.73 521.179,525.73Z" style="fill:rgb(228,228,228);fill-rule:nonzero;"/>
            </g>
            <g transform="matrix(1,0,0,1,-234.169,-231.81)">
                <path d="M752.431,667.19L504.783,667.19C503.641,667.19 502.712,649.64 502.712,628.067L502.712,397.933C502.712,376.359 503.641,358.809 504.783,358.809L752.431,358.809C753.573,358.809 754.502,376.359 754.502,397.933L754.502,628.067C754.502,649.64 753.573,667.19 752.431,667.19Z" style="fill:white;fill-rule:nonzero;"/>
            </g>
            <g transform="matrix(1,0,0,1,-234.169,-231.81)">
                <path d="M752.432,668.19L504.783,668.19C503.735,668.19 502.978,668.19 502.321,655.771C501.928,648.356 501.712,638.518 501.712,628.066L501.712,397.933C501.712,387.482 501.928,377.643 502.321,370.228C502.978,357.809 503.735,357.809 504.783,357.809L752.432,357.809C753.479,357.809 754.236,357.809 754.893,370.228C755.286,377.643 755.502,387.482 755.502,397.933L755.502,628.066C755.502,638.518 755.286,648.356 754.893,655.771C754.236,668.19 753.479,668.19 752.432,668.19ZM505.336,666.19L751.878,666.19C752.596,663.599 753.502,649.796 753.502,628.066L753.502,397.933C753.502,376.203 752.596,362.4 751.878,359.809L505.336,359.809C504.618,362.4 503.712,376.203 503.712,397.933L503.712,628.066C503.712,649.796 504.618,663.599 505.336,666.19Z" style="fill:rgb(228,228,228);fill-rule:nonzero;"/>
            </g>
            <g transform="matrix(1,0,0,1,-234.169,-231.81)">
                <path d="M752.431,375.13L504.783,375.13C503.647,375.128 502.713,374.195 502.712,373.059L502.712,360.88C502.713,359.744 503.647,358.811 504.783,358.809L752.431,358.809C753.567,358.811 754.501,359.744 754.502,360.88L754.502,373.059C754.501,374.195 753.567,375.128 752.431,375.13Z" style="fill:rgb(202,202,202);fill-rule:nonzero;"/>
            </g>
            <circle id="a9432236-99f6-4733-9920-e312ad95354d" cx="280.559" cy="134.565" r="2.94" style="fill:white;"/>
            <circle id="fc8d1cb9-e477-4d66-a241-a00170356ca4" cx="291.717" cy="134.565" r="2.94" style="fill:white;"/>
            <circle id="bc1189a4-69b8-41a6-80e2-1e52c3b8abfb" cx="302.875" cy="134.565" r="2.94" style="fill:white;"/>
            <g transform="matrix(1,0,0,1,-234.169,-231.81)">
                <path d="M741.499,364.352L728.65,364.352C728.128,364.352 727.699,363.922 727.699,363.4C727.699,362.878 728.128,362.449 728.65,362.449L741.499,362.449C742.02,362.45 742.448,362.879 742.448,363.4C742.448,363.921 742.02,364.35 741.499,364.352Z" style="fill:white;fill-rule:nonzero;"/>
            </g>
            <g transform="matrix(1,0,0,1,-234.169,-231.81)">
                <path d="M741.499,367.921L728.65,367.921C728.128,367.921 727.699,367.492 727.699,366.969C727.699,366.447 728.128,366.018 728.65,366.018L741.499,366.018C742.021,366.018 742.451,366.447 742.451,366.969C742.451,367.492 742.021,367.921 741.499,367.921Z" style="fill:white;fill-rule:nonzero;"/>
            </g>
            <g transform="matrix(1,0,0,1,-234.169,-231.81)">
                <path d="M741.499,371.49L728.65,371.49C728.128,371.49 727.699,371.061 727.699,370.539C727.699,370.016 728.128,369.587 728.65,369.587L741.499,369.587C742.02,369.588 742.448,370.018 742.448,370.539C742.448,371.059 742.02,371.489 741.499,371.49Z" style="fill:white;fill-rule:nonzero;"/>
            </g>
            <g transform="matrix(1,0,0,1,-234.169,-231.81)">
                <path d="M580.882,450.727L549.289,450.727C546.013,450.723 543.318,448.028 543.315,444.752L543.315,417.389C543.318,414.113 546.013,411.418 549.289,411.414L580.882,411.414C584.159,411.418 586.853,414.113 586.857,417.389L586.857,444.752C586.853,448.028 584.159,450.723 580.882,450.727Z" style="fill:rgb(227,255,99);fill-rule:nonzero;"/>
            </g>
            <g transform="matrix(1,0,0,1,-234.169,-231.81)">
                <path d="M711.187,427.426L601.077,427.426C599.589,427.426 598.364,426.201 598.364,424.713C598.364,423.225 599.589,422.001 601.077,422.001L711.187,422.001C712.675,422.001 713.899,423.225 713.899,424.713C713.899,426.201 712.675,427.426 711.187,427.426Z" style="fill:rgb(228,228,228);fill-rule:nonzero;"/>
            </g>
            <g transform="matrix(1,0,0,1,-234.169,-231.81)">
                <path d="M642.898,440.14L601.077,440.14C599.589,440.14 598.364,438.915 598.364,437.427C598.364,435.939 599.589,434.715 601.077,434.715L642.898,434.715C642.9,434.715 642.902,434.715 642.903,434.715C644.391,434.715 645.616,435.939 645.616,437.427C645.616,438.915 644.391,440.14 642.903,440.14C642.902,440.14 642.9,440.14 642.898,440.14Z" style="fill:rgb(228,228,228);fill-rule:nonzero;"/>
            </g>
            <g transform="matrix(1,0,0,1,-234.169,-231.81)">
                <path d="M580.882,531.727L549.289,531.727C546.013,531.723 543.318,529.028 543.315,525.752L543.315,498.389C543.318,495.113 546.013,492.418 549.289,492.414L580.882,492.414C584.159,492.418 586.853,495.113 586.857,498.389L586.857,525.752C586.853,529.028 584.159,531.723 580.882,531.727Z" style="fill:rgb(227,255,99);fill-rule:nonzero;"/>
            </g>
            <g transform="matrix(1,0,0,1,-234.169,-231.81)">
                <path d="M711.187,508.426L601.077,508.426C599.589,508.426 598.364,507.201 598.364,505.713C598.364,504.225 599.589,503.001 601.077,503.001L711.187,503.001C712.675,503.001 713.899,504.225 713.899,505.713C713.899,507.201 712.675,508.426 711.187,508.426Z" style="fill:rgb(228,228,228);fill-rule:nonzero;"/>
            </g>
            <g transform="matrix(1,0,0,1,-234.169,-231.81)">
                <path d="M642.898,521.14L601.077,521.14C599.589,521.14 598.364,519.915 598.364,518.427C598.364,516.939 599.589,515.715 601.077,515.715L642.898,515.715C642.9,515.715 642.902,515.715 642.903,515.715C644.391,515.715 645.616,516.939 645.616,518.427C645.616,519.915 644.391,521.14 642.903,521.14C642.902,521.14 642.9,521.14 642.898,521.14Z" style="fill:rgb(228,228,228);fill-rule:nonzero;"/>
            </g>
            <g transform="matrix(1,0,0,1,-234.169,-231.81)">
                <path d="M580.882,612.727L549.289,612.727C546.013,612.723 543.318,610.028 543.315,606.752L543.315,579.389C543.318,576.113 546.013,573.418 549.289,573.414L580.882,573.414C584.159,573.418 586.853,576.113 586.857,579.389L586.857,606.752C586.853,610.028 584.159,612.723 580.882,612.727Z" style="fill:rgb(227,255,99);fill-rule:nonzero;"/>
            </g>
            <g transform="matrix(1,0,0,1,-234.169,-231.81)">
                <path d="M711.187,589.426L601.077,589.426C599.589,589.426 598.364,588.201 598.364,586.713C598.364,585.225 599.589,584.001 601.077,584.001L711.187,584.001C712.675,584.001 713.899,585.225 713.899,586.713C713.899,588.201 712.675,589.426 711.187,589.426Z" style="fill:rgb(228,228,228);fill-rule:nonzero;"/>
            </g>
            <g transform="matrix(1,0,0,1,-234.169,-231.81)">
                <path d="M642.898,602.14L601.077,602.14C599.589,602.14 598.364,600.915 598.364,599.427C598.364,597.939 599.589,596.715 601.077,596.715L642.898,596.715C642.9,596.715 642.902,596.715 642.903,596.715C644.391,596.715 645.616,597.939 645.616,599.427C645.616,600.915 644.391,602.14 642.903,602.14C642.902,602.14 642.9,602.14 642.898,602.14Z" style="fill:rgb(228,228,228);fill-rule:nonzero;"/>
            </g>
        </g>
    </g>
</svg>
